<?xml version="1.0"?>
<!DOCTYPE svg PUBLIC "-//W3C//DTD SVG 1.1//EN"
  "http://www.w3.org/Graphics/SVG/1.1/DTD/svg11.dtd">

<svg width="1905.6000000000001" height="450" xmlns="http://www.w3.org/2000/svg" xmlns:xlink="http://www.w3.org/1999/xlink"><g transform="translate(90,20)"><g transform="translate(0,0)"><g><rect x="0" y="0" width="50.259459459459464" height="410" transform="translate(-2,-20)" opacity="0" fill="silver"></rect></g><g class="layer" style="fill: rgb(110, 64, 170);"><rect x="0" y="294" height="0" width="46.259459459459464"></rect><rect x="48.259459459459464" y="294" height="0" width="46.259459459459464"></rect><rect x="96.51891891891893" y="294" height="0" width="46.259459459459464"></rect><rect x="144.7783783783784" y="294" height="0" width="46.259459459459464"></rect><rect x="193.03783783783786" y="293.3684642587874" height="0.6315357412125877" width="46.259459459459464"></rect><rect x="241.29729729729732" y="292.5761845310153" height="1.4238154689846851" width="46.259459459459464"></rect><rect x="289.5567567567568" y="294" height="0" width="46.259459459459464"></rect><rect x="337.8162162162163" y="294" height="0" width="46.259459459459464"></rect><rect x="386.0756756756757" y="294" height="0" width="46.259459459459464"></rect><rect x="434.33513513513515" y="293.5843256328902" height="0.4156743671097729" width="46.259459459459464"></rect><rect x="482.59459459459464" y="293.02361627043905" height="0.9763837295609505" width="46.259459459459464"></rect><rect x="530.8540540540541" y="294" height="0" width="46.259459459459464"></rect><rect x="579.1135135135136" y="294" height="0" width="46.259459459459464"></rect><rect x="627.372972972973" y="293.77076353858956" height="0.2292364614104372" width="46.259459459459464"></rect><rect x="675.6324324324326" y="293.9717089703678" height="0.028291029632214304" width="46.259459459459464"></rect><rect x="723.891891891892" y="293.2384768267456" height="0.7615231732543748" width="46.259459459459464"></rect><rect x="772.1513513513514" y="293.9513688528983" height="0.04863114710167338" width="46.259459459459464"></rect><rect x="820.4108108108109" y="293.777250767484" height="0.2227492325159801" width="46.259459459459464"></rect><rect x="868.6702702702703" y="293.0651791094867" height="0.934820890513322" width="46.259459459459464"></rect><rect x="916.9297297297298" y="294" height="0" width="46.259459459459464"></rect><rect x="965.1891891891893" y="294" height="0" width="46.259459459459464"></rect><rect x="1013.4486486486487" y="294" height="0" width="46.259459459459464"></rect><rect x="1061.7081081081083" y="294" height="0" width="46.259459459459464"></rect><rect x="1109.9675675675676" y="294" height="0" width="46.259459459459464"></rect><rect x="1158.2270270270271" y="294" height="0" width="46.259459459459464"></rect><rect x="1206.4864864864867" y="293.71414143642806" height="0.28585856357193506" width="46.259459459459464"></rect><rect x="1254.745945945946" y="294" height="0" width="46.259459459459464"></rect><rect x="1303.0054054054056" y="294" height="0" width="46.259459459459464"></rect><rect x="1351.264864864865" y="294" height="0" width="46.259459459459464"></rect><rect x="1399.5243243243244" y="294" height="0" width="46.259459459459464"></rect><rect x="1447.783783783784" y="294" height="0" width="46.259459459459464"></rect><rect x="1496.0432432432433" y="294" height="0" width="46.259459459459464"></rect><rect x="1544.3027027027028" y="294" height="0" width="46.259459459459464"></rect><rect x="1592.5621621621624" y="294" height="0" width="46.259459459459464"></rect><rect x="1640.8216216216217" y="293.994032442804" height="0.005967557196015605" width="46.259459459459464"></rect><rect x="1689.0810810810813" y="294" height="0" width="46.259459459459464"></rect><rect x="1737.3405405405406" y="294" height="0" width="46.259459459459464"></rect></g><g class="layer" style="fill: rgb(178, 60, 178);"><rect x="0" y="294" height="0" width="46.259459459459464"></rect><rect x="48.259459459459464" y="294" height="0" width="46.259459459459464"></rect><rect x="96.51891891891893" y="294" height="0" width="46.259459459459464"></rect><rect x="144.7783783783784" y="294" height="0" width="46.259459459459464"></rect><rect x="193.03783783783786" y="293.3684642587874" height="0" width="46.259459459459464"></rect><rect x="241.29729729729732" y="292.5761845310153" height="0" width="46.259459459459464"></rect><rect x="289.5567567567568" y="294" height="0" width="46.259459459459464"></rect><rect x="337.8162162162163" y="294" height="0" width="46.259459459459464"></rect><rect x="386.0756756756757" y="294" height="0" width="46.259459459459464"></rect><rect x="434.33513513513515" y="293.5843256328902" height="0" width="46.259459459459464"></rect><rect x="482.59459459459464" y="293.02361627043905" height="0" width="46.259459459459464"></rect><rect x="530.8540540540541" y="294" height="0" width="46.259459459459464"></rect><rect x="579.1135135135136" y="294" height="0" width="46.259459459459464"></rect><rect x="627.372972972973" y="293.77076353858956" height="0" width="46.259459459459464"></rect><rect x="675.6324324324326" y="293.9717089703678" height="0" width="46.259459459459464"></rect><rect x="723.891891891892" y="293.2384768267456" height="0" width="46.259459459459464"></rect><rect x="772.1513513513514" y="293.9513688528983" height="0" width="46.259459459459464"></rect><rect x="820.4108108108109" y="293.777250767484" height="0" width="46.259459459459464"></rect><rect x="868.6702702702703" y="293.0651791094867" height="0" width="46.259459459459464"></rect><rect x="916.9297297297298" y="294" height="0" width="46.259459459459464"></rect><rect x="965.1891891891893" y="294" height="0" width="46.259459459459464"></rect><rect x="1013.4486486486487" y="294" height="0" width="46.259459459459464"></rect><rect x="1061.7081081081083" y="294" height="0" width="46.259459459459464"></rect><rect x="1109.9675675675676" y="294" height="0" width="46.259459459459464"></rect><rect x="1158.2270270270271" y="294" height="0" width="46.259459459459464"></rect><rect x="1206.4864864864867" y="293.71414143642806" height="0" width="46.259459459459464"></rect><rect x="1254.745945945946" y="294" height="0" width="46.259459459459464"></rect><rect x="1303.0054054054056" y="294" height="0" width="46.259459459459464"></rect><rect x="1351.264864864865" y="294" height="0" width="46.259459459459464"></rect><rect x="1399.5243243243244" y="294" height="0" width="46.259459459459464"></rect><rect x="1447.783783783784" y="294" height="0" width="46.259459459459464"></rect><rect x="1496.0432432432433" y="294" height="0" width="46.259459459459464"></rect><rect x="1544.3027027027028" y="294" height="0" width="46.259459459459464"></rect><rect x="1592.5621621621624" y="294" height="0" width="46.259459459459464"></rect><rect x="1640.8216216216217" y="293.994032442804" height="0" width="46.259459459459464"></rect><rect x="1689.0810810810813" y="294" height="0" width="46.259459459459464"></rect><rect x="1737.3405405405406" y="293.999041852241" height="0.0009581477589790666" width="46.259459459459464"></rect></g><g class="layer" style="fill: rgb(238, 67, 149);"><rect x="0" y="292.8500106766951" height="1.1499893233049079" width="46.259459459459464"></rect><rect x="48.259459459459464" y="289.2500832409434" height="4.749916759056589" width="46.259459459459464"></rect><rect x="96.51891891891893" y="292.20208837065695" height="1.797911629343048" width="46.259459459459464"></rect><rect x="144.7783783783784" y="291.4866615427362" height="2.513338457263785" width="46.259459459459464"></rect><rect x="193.03783783783786" y="291.3365859786394" height="2.031878280148021" width="46.259459459459464"></rect><rect x="241.29729729729732" y="291.53180561203135" height="1.0443789189839663" width="46.259459459459464"></rect><rect x="289.5567567567568" y="289.99279964626044" height="4.007200353739563" width="46.259459459459464"></rect><rect x="337.8162162162163" y="292.51622118293585" height="1.4837788170641488" width="46.259459459459464"></rect><rect x="386.0756756756757" y="291.6061930060295" height="2.393806993970486" width="46.259459459459464"></rect><rect x="434.33513513513515" y="292.01639250311086" height="1.5679331297793624" width="46.259459459459464"></rect><rect x="482.59459459459464" y="291.94087646296083" height="1.0827398074782195" width="46.259459459459464"></rect><rect x="530.8540540540541" y="292.57602268783023" height="1.423977312169768" width="46.259459459459464"></rect><rect x="579.1135135135136" y="293.23034251437747" height="0.7696574856225311" width="46.259459459459464"></rect><rect x="627.372972972973" y="292.87729427054853" height="0.8934692680410308" width="46.259459459459464"></rect><rect x="675.6324324324326" y="293.23754633124514" height="0.7341626391226441" width="46.259459459459464"></rect><rect x="723.891891891892" y="291.7198987364353" height="1.5185780903103137" width="46.259459459459464"></rect><rect x="772.1513513513514" y="292.81581057524687" height="1.1355582776514552" width="46.259459459459464"></rect><rect x="820.4108108108109" y="292.6442711762115" height="1.1329795912725444" width="46.259459459459464"></rect><rect x="868.6702702702703" y="291.81012957677706" height="1.25504953270962" width="46.259459459459464"></rect><rect x="916.9297297297298" y="293.46608728318853" height="0.5339127168114715" width="46.259459459459464"></rect><rect x="965.1891891891893" y="293.5991178919608" height="0.400882108039184" width="46.259459459459464"></rect><rect x="1013.4486486486487" y="293.35663850647865" height="0.6433614935213541" width="46.259459459459464"></rect><rect x="1061.7081081081083" y="293.5608908487927" height="0.4391091512072762" width="46.259459459459464"></rect><rect x="1109.9675675675676" y="293.91598091909736" height="0.08401908090263532" width="46.259459459459464"></rect><rect x="1158.2270270270271" y="293.58135339991964" height="0.4186466000803648" width="46.259459459459464"></rect><rect x="1206.4864864864867" y="293.35612523641424" height="0.3580162000138216" width="46.259459459459464"></rect><rect x="1254.745945945946" y="293.66699613200603" height="0.3330038679939662" width="46.259459459459464"></rect><rect x="1303.0054054054056" y="293.6163458177306" height="0.3836541822694244" width="46.259459459459464"></rect><rect x="1351.264864864865" y="293.7651154123189" height="0.23488458768110831" width="46.259459459459464"></rect><rect x="1399.5243243243244" y="293.71518605404617" height="0.2848139459538288" width="46.259459459459464"></rect><rect x="1447.783783783784" y="293.52557529550245" height="0.4744247044975509" width="46.259459459459464"></rect><rect x="1496.0432432432433" y="293.63599854987746" height="0.3640014501225437" width="46.259459459459464"></rect><rect x="1544.3027027027028" y="293.56332182681234" height="0.43667817318765856" width="46.259459459459464"></rect><rect x="1592.5621621621624" y="293.5583119519187" height="0.44168804808128925" width="46.259459459459464"></rect><rect x="1640.8216216216217" y="293.8305069984532" height="0.16352544435079608" width="46.259459459459464"></rect><rect x="1689.0810810810813" y="293.9635377833973" height="0.036462216602672015" width="46.259459459459464"></rect><rect x="1737.3405405405406" y="293.999041852241" height="0" width="46.259459459459464"></rect></g><g class="layer" style="fill: rgb(255, 94, 99);"><rect x="0" y="287.90633017866804" height="4.9436804980270495" width="46.259459459459464"></rect><rect x="48.259459459459464" y="282.7200572454461" height="6.530025995497283" width="46.259459459459464"></rect><rect x="96.51891891891893" y="289.2030147060171" height="2.999073664639866" width="46.259459459459464"></rect><rect x="144.7783783783784" y="286.5834340444466" height="4.903227498289596" width="46.259459459459464"></rect><rect x="193.03783783783786" y="290.6430127774545" height="0.6935732011849041" width="46.259459459459464"></rect><rect x="241.29729729729732" y="291.53180561203135" height="0" width="46.259459459459464"></rect><rect x="289.5567567567568" y="288.0965690107766" height="1.896230635483846" width="46.259459459459464"></rect><rect x="337.8162162162163" y="291.0005501085724" height="1.5156710743634676" width="46.259459459459464"></rect><rect x="386.0756756756757" y="290.9334356039668" height="0.6727574020627003" width="46.259459459459464"></rect><rect x="434.33513513513515" y="289.3304478400321" height="2.6859446630787716" width="46.259459459459464"></rect><rect x="482.59459459459464" y="291.7348177840111" height="0.20605867894971652" width="46.259459459459464"></rect><rect x="530.8540540540541" y="291.3720991544309" height="1.2039235333993474" width="46.259459459459464"></rect><rect x="579.1135135135136" y="291.36263184079456" height="1.8677106735829057" width="46.259459459459464"></rect><rect x="627.372972972973" y="292.0517989161577" height="0.8254953543908528" width="46.259459459459464"></rect><rect x="675.6324324324326" y="291.883180598888" height="1.3543657323571665" width="46.259459459459464"></rect><rect x="723.891891891892" y="290.0041694139451" height="1.7157293224902332" width="46.259459459459464"></rect><rect x="772.1513513513514" y="290.96493304191426" height="1.850877533332607" width="46.259459459459464"></rect><rect x="820.4108108108109" y="291.3125349542652" height="1.3317362219463007" width="46.259459459459464"></rect><rect x="868.6702702702703" y="291.81012957677706" height="0" width="46.259459459459464"></rect><rect x="916.9297297297298" y="292.703081112909" height="0.7630061702795388" width="46.259459459459464"></rect><rect x="965.1891891891893" y="292.9356592596341" height="0.6634586323266944" width="46.259459459459464"></rect><rect x="1013.4486486486487" y="292.91247934220115" height="0.4441591642774938" width="46.259459459459464"></rect><rect x="1061.7081081081083" y="292.9862558632378" height="0.5746349855549511" width="46.259459459459464"></rect><rect x="1109.9675675675676" y="293.55743562419184" height="0.3585452949055252" width="46.259459459459464"></rect><rect x="1158.2270270270271" y="293.0071636942916" height="0.5741897056280436" width="46.259459459459464"></rect><rect x="1206.4864864864867" y="292.62977575093606" height="0.7263494854781811" width="46.259459459459464"></rect><rect x="1254.745945945946" y="293.04058925177293" height="0.6264068802331053" width="46.259459459459464"></rect><rect x="1303.0054054054056" y="293.30055850504687" height="0.3157873126837103" width="46.259459459459464"></rect><rect x="1351.264864864865" y="293.3245715023845" height="0.44054390993437664" width="46.259459459459464"></rect><rect x="1399.5243243243244" y="293.3821467844543" height="0.3330392695918931" width="46.259459459459464"></rect><rect x="1447.783783783784" y="293.3911568796855" height="0.13441841581692415" width="46.259459459459464"></rect><rect x="1496.0432432432433" y="293.5204306784369" height="0.1155678714405326" width="46.259459459459464"></rect><rect x="1544.3027027027028" y="293.39569935857037" height="0.1676224682419729" width="46.259459459459464"></rect><rect x="1592.5621621621624" y="293.03985184506257" height="0.5184601068561392" width="46.259459459459464"></rect><rect x="1640.8216216216217" y="293.6401515896705" height="0.1903554087826933" width="46.259459459459464"></rect><rect x="1689.0810810810813" y="293.9635377833973" height="0" width="46.259459459459464"></rect><rect x="1737.3405405405406" y="293.94460301702117" height="0.054438835219855264" width="46.259459459459464"></rect></g><g class="layer" style="fill: rgb(255, 140, 56);"><rect x="0" y="287.90633017866804" height="0" width="46.259459459459464"></rect><rect x="48.259459459459464" y="282.0564197049153" height="0.6636375405308286" width="46.259459459459464"></rect><rect x="96.51891891891893" y="289.2030147060171" height="0" width="46.259459459459464"></rect><rect x="144.7783783783784" y="286.5834340444466" height="0" width="46.259459459459464"></rect><rect x="193.03783783783786" y="289.71790839498493" height="0.9251043824695557" width="46.259459459459464"></rect><rect x="241.29729729729732" y="285.56108473098504" height="5.970720881046304" width="46.259459459459464"></rect><rect x="289.5567567567568" y="288.0965690107766" height="0" width="46.259459459459464"></rect><rect x="337.8162162162163" y="290.9860703330176" height="0.014479775554775642" width="46.259459459459464"></rect><rect x="386.0756756756757" y="290.81125322460844" height="0.12218237935837806" width="46.259459459459464"></rect><rect x="434.33513513513515" y="289.252979880871" height="0.0774679591610834" width="46.259459459459464"></rect><rect x="482.59459459459464" y="290.3301599843114" height="1.4046577996996916" width="46.259459459459464"></rect><rect x="530.8540540540541" y="291.3720991544309" height="0" width="46.259459459459464"></rect><rect x="579.1135135135136" y="291.36263184079456" height="0" width="46.259459459459464"></rect><rect x="627.372972972973" y="292.0517989161577" height="0" width="46.259459459459464"></rect><rect x="675.6324324324326" y="291.883180598888" height="0" width="46.259459459459464"></rect><rect x="723.891891891892" y="290.0041694139451" height="0" width="46.259459459459464"></rect><rect x="772.1513513513514" y="290.96493304191426" height="0" width="46.259459459459464"></rect><rect x="820.4108108108109" y="291.22019824934983" height="0.09233670491533985" width="46.259459459459464"></rect><rect x="868.6702702702703" y="290.2625195495451" height="1.54761002723194" width="46.259459459459464"></rect><rect x="916.9297297297298" y="292.703081112909" height="0" width="46.259459459459464"></rect><rect x="965.1891891891893" y="292.9356592596341" height="0" width="46.259459459459464"></rect><rect x="1013.4486486486487" y="292.91247934220115" height="0" width="46.259459459459464"></rect><rect x="1061.7081081081083" y="292.9862558632378" height="0" width="46.259459459459464"></rect><rect x="1109.9675675675676" y="293.4057886800276" height="0.15164694416421298" width="46.259459459459464"></rect><rect x="1158.2270270270271" y="293.0071636942916" height="0" width="46.259459459459464"></rect><rect x="1206.4864864864867" y="292.62977575093606" height="0" width="46.259459459459464"></rect><rect x="1254.745945945946" y="293.04058925177293" height="0" width="46.259459459459464"></rect><rect x="1303.0054054054056" y="293.30055850504687" height="0" width="46.259459459459464"></rect><rect x="1351.264864864865" y="293.3245715023845" height="0" width="46.259459459459464"></rect><rect x="1399.5243243243244" y="293.3821467844543" height="0" width="46.259459459459464"></rect><rect x="1447.783783783784" y="293.3911568796855" height="0" width="46.259459459459464"></rect><rect x="1496.0432432432433" y="293.5204306784369" height="0" width="46.259459459459464"></rect><rect x="1544.3027027027028" y="293.39569935857037" height="0" width="46.259459459459464"></rect><rect x="1592.5621621621624" y="293.03985184506257" height="0" width="46.259459459459464"></rect><rect x="1640.8216216216217" y="293.6401515896705" height="0" width="46.259459459459464"></rect><rect x="1689.0810810810813" y="293.9635377833973" height="0" width="46.259459459459464"></rect><rect x="1737.3405405405406" y="293.9360244094452" height="0.008578607575941533" width="46.259459459459464"></rect></g><g class="layer" style="fill: rgb(217, 194, 49);"><rect x="0" y="287.906330178668" height="5.684341886080802e-14" width="46.259459459459464"></rect><rect x="48.259459459459464" y="282.0564197049153" height="0" width="46.259459459459464"></rect><rect x="96.51891891891893" y="289.2030147060171" height="0" width="46.259459459459464"></rect><rect x="144.7783783783784" y="286.5834340444466" height="0" width="46.259459459459464"></rect><rect x="193.03783783783786" y="289.71790839498493" height="0" width="46.259459459459464"></rect><rect x="241.29729729729732" y="285.56108473098504" height="0" width="46.259459459459464"></rect><rect x="289.5567567567568" y="288.0965690107766" height="0" width="46.259459459459464"></rect><rect x="337.8162162162163" y="290.9860703330176" height="0" width="46.259459459459464"></rect><rect x="386.0756756756757" y="290.81125322460844" height="0" width="46.259459459459464"></rect><rect x="434.33513513513515" y="289.252979880871" height="0" width="46.259459459459464"></rect><rect x="482.59459459459464" y="290.3301599843114" height="0" width="46.259459459459464"></rect><rect x="530.8540540540541" y="291.3720991544309" height="0" width="46.259459459459464"></rect><rect x="579.1135135135136" y="291.36263184079456" height="0" width="46.259459459459464"></rect><rect x="627.372972972973" y="292.0517989161577" height="0" width="46.259459459459464"></rect><rect x="675.6324324324326" y="291.883180598888" height="0" width="46.259459459459464"></rect><rect x="723.891891891892" y="290.0041694139451" height="0" width="46.259459459459464"></rect><rect x="772.1513513513514" y="290.96493304191426" height="0" width="46.259459459459464"></rect><rect x="820.4108108108109" y="291.22019824934983" height="0" width="46.259459459459464"></rect><rect x="868.6702702702703" y="290.2625195495451" height="0" width="46.259459459459464"></rect><rect x="916.9297297297298" y="292.703081112909" height="0" width="46.259459459459464"></rect><rect x="965.1891891891893" y="292.9356592596341" height="0" width="46.259459459459464"></rect><rect x="1013.4486486486487" y="292.91247934220115" height="0" width="46.259459459459464"></rect><rect x="1061.7081081081083" y="292.9862558632378" height="0" width="46.259459459459464"></rect><rect x="1109.9675675675676" y="293.4057886800276" height="0" width="46.259459459459464"></rect><rect x="1158.2270270270271" y="293.0071636942916" height="0" width="46.259459459459464"></rect><rect x="1206.4864864864867" y="292.62977575093606" height="0" width="46.259459459459464"></rect><rect x="1254.745945945946" y="293.04058925177293" height="0" width="46.259459459459464"></rect><rect x="1303.0054054054056" y="293.30055850504687" height="0" width="46.259459459459464"></rect><rect x="1351.264864864865" y="293.3245715023845" height="0" width="46.259459459459464"></rect><rect x="1399.5243243243244" y="293.3821467844543" height="0" width="46.259459459459464"></rect><rect x="1447.783783783784" y="293.3911568796855" height="0" width="46.259459459459464"></rect><rect x="1496.0432432432433" y="293.5204306784369" height="0" width="46.259459459459464"></rect><rect x="1544.3027027027028" y="293.39569935857037" height="0" width="46.259459459459464"></rect><rect x="1592.5621621621624" y="293.03985184506257" height="0" width="46.259459459459464"></rect><rect x="1640.8216216216217" y="293.6401515896705" height="0" width="46.259459459459464"></rect><rect x="1689.0810810810813" y="293.9635377833973" height="0" width="46.259459459459464"></rect><rect x="1737.3405405405406" y="293.9360244094452" height="0" width="46.259459459459464"></rect></g><g class="layer" style="fill: rgb(175, 240, 91);"><rect x="0" y="277.3013659835339" height="10.604964195134073" width="46.259459459459464"></rect><rect x="48.259459459459464" y="274.86687666072146" height="7.18954304419384" width="46.259459459459464"></rect><rect x="96.51891891891893" y="284.3675742581913" height="4.835440447825761" width="46.259459459459464"></rect><rect x="144.7783783783784" y="279.84059818648615" height="6.742835857960472" width="46.259459459459464"></rect><rect x="193.03783783783786" y="286.194094326531" height="3.5238140684539303" width="46.259459459459464"></rect><rect x="241.29729729729732" y="285.12853882809895" height="0.4325459028860905" width="46.259459459459464"></rect><rect x="289.5567567567568" y="284.43259591296356" height="3.6639730978130274" width="46.259459459459464"></rect><rect x="337.8162162162163" y="285.7100327154477" height="5.276037617569898" width="46.259459459459464"></rect><rect x="386.0756756756757" y="287.1569355504284" height="3.6543176741800494" width="46.259459459459464"></rect><rect x="434.33513513513515" y="284.89025163515714" height="4.362728245713868" width="46.259459459459464"></rect><rect x="482.59459459459464" y="288.1301749257218" height="2.1999850585896183" width="46.259459459459464"></rect><rect x="530.8540540540541" y="287.66254396223405" height="3.709555192196831" width="46.259459459459464"></rect><rect x="579.1135135135136" y="289.8250592808716" height="1.5375725599229781" width="46.259459459459464"></rect><rect x="627.372972972973" y="291.2132287267481" height="0.8385701894095519" width="46.259459459459464"></rect><rect x="675.6324324324326" y="289.09416297840136" height="2.789017620486618" width="46.259459459459464"></rect><rect x="723.891891891892" y="287.2581509035784" height="2.746018510366696" width="46.259459459459464"></rect><rect x="772.1513513513514" y="289.36515329230156" height="1.5997797496127077" width="46.259459459459464"></rect><rect x="820.4108108108109" y="290.2947297536047" height="0.9254684957451218" width="46.259459459459464"></rect><rect x="868.6702702702703" y="288.77284026715574" height="1.4896792823893747" width="46.259459459459464"></rect><rect x="916.9297297297298" y="291.6146695064339" height="1.0884116064750629" width="46.259459459459464"></rect><rect x="965.1891891891893" y="292.1543462641518" height="0.7813129954823239" width="46.259459459459464"></rect><rect x="1013.4486486486487" y="292.806374774745" height="0.10610456745615693" width="46.259459459459464"></rect><rect x="1061.7081081081083" y="291.7013048310644" height="1.2849510321733533" width="46.259459459459464"></rect><rect x="1109.9675675675676" y="292.18009071938667" height="1.2256979606409573" width="46.259459459459464"></rect><rect x="1158.2270270270271" y="292.04334775766847" height="0.9638159366231207" width="46.259459459459464"></rect><rect x="1206.4864864864867" y="291.86003637190765" height="0.7697393790284082" width="46.259459459459464"></rect><rect x="1254.745945945946" y="292.0831467437272" height="0.9574425080457445" width="46.259459459459464"></rect><rect x="1303.0054054054056" y="293.0877381786264" height="0.21282032642045579" width="46.259459459459464"></rect><rect x="1351.264864864865" y="292.75325302931924" height="0.5713184730652756" width="46.259459459459464"></rect><rect x="1399.5243243243244" y="292.59355289892136" height="0.7885938855329186" width="46.259459459459464"></rect><rect x="1447.783783783784" y="292.9915437105027" height="0.3996131691828282" width="46.259459459459464"></rect><rect x="1496.0432432432433" y="293.2548008036587" height="0.2656298747781989" width="46.259459459459464"></rect><rect x="1544.3027027027028" y="293.15926172423764" height="0.2364376343327308" width="46.259459459459464"></rect><rect x="1592.5621621621624" y="292.8568516812993" height="0.18300016376326766" width="46.259459459459464"></rect><rect x="1640.8216216216217" y="293.4871428531446" height="0.15300873652591918" width="46.259459459459464"></rect><rect x="1689.0810810810813" y="293.9635377833973" height="0" width="46.259459459459464"></rect><rect x="1737.3405405405406" y="293.8919103108647" height="0.04411409858050774" width="46.259459459459464"></rect></g><g class="layer" style="fill: rgb(96, 247, 96);"><rect x="0" y="32.98386241951903" height="244.31750356401488" width="46.259459459459464"></rect><rect x="48.259459459459464" y="181.6945694848706" height="93.17230717585085" width="46.259459459459464"></rect><rect x="96.51891891891893" y="217.73261605786325" height="66.63495820032807" width="46.259459459459464"></rect><rect x="144.7783783783784" y="219.47043023299085" height="60.3701679534953" width="46.259459459459464"></rect><rect x="193.03783783783786" y="226.2343016201689" height="59.959792706362094" width="46.259459459459464"></rect><rect x="241.29729729729732" y="227.7976003957484" height="57.330938432350564" width="46.259459459459464"></rect><rect x="289.5567567567568" y="229.78169456678046" height="54.650901346183105" width="46.259459459459464"></rect><rect x="337.8162162162163" y="241.16407776565626" height="44.54595494979145" width="46.259459459459464"></rect><rect x="386.0756756756757" y="244.860168888526" height="42.29676666190238" width="46.259459459459464"></rect><rect x="434.33513513513515" y="243.03429355547078" height="41.85595807968636" width="46.259459459459464"></rect><rect x="482.59459459459464" y="254.51042256029172" height="33.61975236543009" width="46.259459459459464"></rect><rect x="530.8540540540541" y="256.0953988133421" height="31.56714514889194" width="46.259459459459464"></rect><rect x="579.1135135135136" y="263.086699008176" height="26.73836027269556" width="46.259459459459464"></rect><rect x="627.372972972973" y="264.75437548554663" height="26.458853241201496" width="46.259459459459464"></rect><rect x="675.6324324324326" y="264.9438089324104" height="24.15035404599098" width="46.259459459459464"></rect><rect x="723.891891891892" y="265.4677897488928" height="21.79036115468557" width="46.259459459459464"></rect><rect x="772.1513513513514" y="270.4904988575113" height="18.874654434790273" width="46.259459459459464"></rect><rect x="820.4108108108109" y="273.8213717089991" height="16.473358044605618" width="46.259459459459464"></rect><rect x="868.6702702702703" y="272.9629306463572" height="15.809909620798521" width="46.259459459459464"></rect><rect x="916.9297297297298" y="278.03362893622824" height="13.581040570205687" width="46.259459459459464"></rect><rect x="965.1891891891893" y="279.98678812671943" height="12.167558137432366" width="46.259459459459464"></rect><rect x="1013.4486486486487" y="284.0582793345257" height="8.748095440219288" width="46.259459459459464"></rect><rect x="1061.7081081081083" y="282.9534929557084" height="8.747811875356035" width="46.259459459459464"></rect><rect x="1109.9675675675676" y="283.69311430067756" height="8.486976418709105" width="46.259459459459464"></rect><rect x="1158.2270270270271" y="283.84509820719745" height="8.198249550471019" width="46.259459459459464"></rect><rect x="1206.4864864864867" y="284.32370906040524" height="7.5363273115024185" width="46.259459459459464"></rect><rect x="1254.745945945946" y="284.58462043858117" height="7.498526305146015" width="46.259459459459464"></rect><rect x="1303.0054054054056" y="286.90046100853664" height="6.1872771700897715" width="46.259459459459464"></rect><rect x="1351.264864864865" y="286.8425788382288" height="5.910674191090436" width="46.259459459459464"></rect><rect x="1399.5243243243244" y="286.86327047393627" height="5.730282424985091" width="46.259459459459464"></rect><rect x="1447.783783783784" y="287.2892698427799" height="5.702273867722795" width="46.259459459459464"></rect><rect x="1496.0432432432433" y="287.7064918957311" height="5.548308907927606" width="46.259459459459464"></rect><rect x="1544.3027027027028" y="288.3275737402568" height="4.831687983980828" width="46.259459459459464"></rect><rect x="1592.5621621621624" y="289.51626048328575" height="3.3405911980135556" width="46.259459459459464"></rect><rect x="1640.8216216216217" y="291.4660063745136" height="2.0211364786309787" width="46.259459459459464"></rect><rect x="1689.0810810810813" y="293.6540014596731" height="0.3095363237242168" width="46.259459459459464"></rect><rect x="1737.3405405405406" y="293.80708911457873" height="0.08482119628598639" width="46.259459459459464"></rect></g><g class="layer" style="fill: rgb(40, 234, 141);"><rect x="0" y="11.797058263298084" height="21.186804156220944" width="46.259459459459464"></rect><rect x="48.259459459459464" y="180.21401959201202" height="1.4805498928585905" width="46.259459459459464"></rect><rect x="96.51891891891893" y="211.16121446547885" height="6.5714015923844045" width="46.259459459459464"></rect><rect x="144.7783783783784" y="216.59151287692592" height="2.8789173560649317" width="46.259459459459464"></rect><rect x="193.03783783783786" y="225.5723993424719" height="0.6619022776970098" width="46.259459459459464"></rect><rect x="241.29729729729732" y="227.7976003957484" height="0" width="46.259459459459464"></rect><rect x="289.5567567567568" y="229.78169456678046" height="0" width="46.259459459459464"></rect><rect x="337.8162162162163" y="237.35018629984788" height="3.813891465808382" width="46.259459459459464"></rect><rect x="386.0756756756757" y="243.4508365369901" height="1.4093323515359089" width="46.259459459459464"></rect><rect x="434.33513513513515" y="240.34016702364136" height="2.6941265318294256" width="46.259459459459464"></rect><rect x="482.59459459459464" y="254.51042256029172" height="0" width="46.259459459459464"></rect><rect x="530.8540540540541" y="254.35562033790464" height="1.7397784754374754" width="46.259459459459464"></rect><rect x="579.1135135135136" y="261.3276766448911" height="1.7590223632849415" width="46.259459459459464"></rect><rect x="627.372972972973" y="264.75437548554663" height="0" width="46.259459459459464"></rect><rect x="675.6324324324326" y="263.43707007481544" height="1.5067388575949394" width="46.259459459459464"></rect><rect x="723.891891891892" y="264.71271494124744" height="0.7550748076453715" width="46.259459459459464"></rect><rect x="772.1513513513514" y="270.4904988575113" height="0" width="46.259459459459464"></rect><rect x="820.4108108108109" y="273.2769629724818" height="0.5444087365173118" width="46.259459459459464"></rect><rect x="868.6702702702703" y="272.9629306463572" height="0" width="46.259459459459464"></rect><rect x="916.9297297297298" y="277.7813994022756" height="0.2522295339526295" width="46.259459459459464"></rect><rect x="965.1891891891893" y="279.7581515070864" height="0.2286366196330505" width="46.259459459459464"></rect><rect x="1013.4486486486487" y="283.7147684894323" height="0.34351084509341945" width="46.259459459459464"></rect><rect x="1061.7081081081083" y="282.098267581596" height="0.855225374112365" width="46.259459459459464"></rect><rect x="1109.9675675675676" y="282.8689745731393" height="0.8241397275382383" width="46.259459459459464"></rect><rect x="1158.2270270270271" y="283.0663769018162" height="0.7787213053812252" width="46.259459459459464"></rect><rect x="1206.4864864864867" y="283.98777703401277" height="0.3359320263924701" width="46.259459459459464"></rect><rect x="1254.745945945946" y="284.195116883871" height="0.3895035547101884" width="46.259459459459464"></rect><rect x="1303.0054054054056" y="286.7664487749261" height="0.13401223361051962" width="46.259459459459464"></rect><rect x="1351.264864864865" y="286.2276854802693" height="0.6148933579594882" width="46.259459459459464"></rect><rect x="1399.5243243243244" y="286.63633413674137" height="0.2269363371948998" width="46.259459459459464"></rect><rect x="1447.783783783784" y="286.82226980351703" height="0.4670000392628708" width="46.259459459459464"></rect><rect x="1496.0432432432433" y="287.36516859475086" height="0.34132330098026387" width="46.259459459459464"></rect><rect x="1544.3027027027028" y="288.1795662890799" height="0.14800745117690894" width="46.259459459459464"></rect><rect x="1592.5621621621624" y="289.31148198870835" height="0.20477849457739694" width="46.259459459459464"></rect><rect x="1640.8216216216217" y="291.44028348756837" height="0.02572288694523195" width="46.259459459459464"></rect><rect x="1689.0810810810813" y="293.6101106444116" height="0.043890815261534044" width="46.259459459459464"></rect><rect x="1737.3405405405406" y="293.7859716812871" height="0.021117433291635734" width="46.259459459459464"></rect></g><g class="layer" style="fill: rgb(26, 199, 194);"><rect x="0" y="11.797058263298084" height="0" width="46.259459459459464"></rect><rect x="48.259459459459464" y="152.72313217266915" height="27.49088741934287" width="46.259459459459464"></rect><rect x="96.51891891891893" y="205.7050123037571" height="5.456202161721762" width="46.259459459459464"></rect><rect x="144.7783783783784" y="213.7531915274047" height="2.838321349521209" width="46.259459459459464"></rect><rect x="193.03783783783786" y="225.5723993424719" height="0" width="46.259459459459464"></rect><rect x="241.29729729729732" y="210.83962764828198" height="16.957972747466414" width="46.259459459459464"></rect><rect x="289.5567567567568" y="208.39443116921757" height="21.38726339756289" width="46.259459459459464"></rect><rect x="337.8162162162163" y="237.35018629984788" height="0" width="46.259459459459464"></rect><rect x="386.0756756756757" y="237.08627377626814" height="6.364562760721952" width="46.259459459459464"></rect><rect x="434.33513513513515" y="238.99230503469346" height="1.3478619889478978" width="46.259459459459464"></rect><rect x="482.59459459459464" y="252.46297229924727" height="2.047450261044446" width="46.259459459459464"></rect><rect x="530.8540540540541" y="252.66333703775408" height="1.6922833001505637" width="46.259459459459464"></rect><rect x="579.1135135135136" y="255.2196752383129" height="6.1080014065781825" width="46.259459459459464"></rect><rect x="627.372972972973" y="264.75437548554663" height="0" width="46.259459459459464"></rect><rect x="675.6324324324326" y="263.0984231866761" height="0.3386468881393512" width="46.259459459459464"></rect><rect x="723.891891891892" y="264.71271494124744" height="0" width="46.259459459459464"></rect><rect x="772.1513513513514" y="265.9214908005944" height="4.569008056916857" width="46.259459459459464"></rect><rect x="820.4108108108109" y="273.2769629724818" height="0" width="46.259459459459464"></rect><rect x="868.6702702702703" y="272.18925433435953" height="0.7736763119976899" width="46.259459459459464"></rect><rect x="916.9297297297298" y="274.75580029911544" height="3.025599103160175" width="46.259459459459464"></rect><rect x="965.1891891891893" y="279.7581515070864" height="0" width="46.259459459459464"></rect><rect x="1013.4486486486487" y="283.7147684894323" height="0" width="46.259459459459464"></rect><rect x="1061.7081081081083" y="282.098267581596" height="0" width="46.259459459459464"></rect><rect x="1109.9675675675676" y="282.72783138279283" height="0.14114319034649725" width="46.259459459459464"></rect><rect x="1158.2270270270271" y="283.0663769018162" height="0" width="46.259459459459464"></rect><rect x="1206.4864864864867" y="283.98777703401277" height="0" width="46.259459459459464"></rect><rect x="1254.745945945946" y="284.195116883871" height="0" width="46.259459459459464"></rect><rect x="1303.0054054054056" y="286.7664487749261" height="0" width="46.259459459459464"></rect><rect x="1351.264864864865" y="286.2276854802693" height="0" width="46.259459459459464"></rect><rect x="1399.5243243243244" y="286.63633413674137" height="0" width="46.259459459459464"></rect><rect x="1447.783783783784" y="286.82226980351703" height="0" width="46.259459459459464"></rect><rect x="1496.0432432432433" y="287.36516859475086" height="0" width="46.259459459459464"></rect><rect x="1544.3027027027028" y="288.1795662890799" height="0" width="46.259459459459464"></rect><rect x="1592.5621621621624" y="289.31148198870835" height="0" width="46.259459459459464"></rect><rect x="1640.8216216216217" y="291.44028348756837" height="0" width="46.259459459459464"></rect><rect x="1689.0810810810813" y="293.4524057263466" height="0.15770491806495102" width="46.259459459459464"></rect><rect x="1737.3405405405406" y="293.7859716812871" height="0" width="46.259459459459464"></rect></g><g class="layer" style="fill: rgb(47, 150, 224);"><rect x="0" y="0" height="11.797058263298084" width="46.259459459459464"></rect><rect x="48.259459459459464" y="131.27731805304967" height="21.445814119619484" width="46.259459459459464"></rect><rect x="96.51891891891893" y="200.5873402977469" height="5.117672006010196" width="46.259459459459464"></rect><rect x="144.7783783783784" y="206.12200884394565" height="7.631182683459059" width="46.259459459459464"></rect><rect x="193.03783783783786" y="219.22385614967422" height="6.348543192797678" width="46.259459459459464"></rect><rect x="241.29729729729732" y="208.66690932915952" height="2.1727183191224526" width="46.259459459459464"></rect><rect x="289.5567567567568" y="199.41410305317544" height="8.98032811604213" width="46.259459459459464"></rect><rect x="337.8162162162163" y="232.85116609876894" height="4.499020201078935" width="46.259459459459464"></rect><rect x="386.0756756756757" y="231.7965134392187" height="5.289760337049444" width="46.259459459459464"></rect><rect x="434.33513513513515" y="234.9462363580693" height="4.046068676624145" width="46.259459459459464"></rect><rect x="482.59459459459464" y="250.79303315982963" height="1.669939139417636" width="46.259459459459464"></rect><rect x="530.8540540540541" y="250.19561420012445" height="2.4677228376296227" width="46.259459459459464"></rect><rect x="579.1135135135136" y="252.683409658482" height="2.5362655798309106" width="46.259459459459464"></rect><rect x="627.372972972973" y="261.38208422815126" height="3.372291257395375" width="46.259459459459464"></rect><rect x="675.6324324324326" y="261.1400699440191" height="1.9583532426569832" width="46.259459459459464"></rect><rect x="723.891891891892" y="260.91840790594597" height="3.794307035301472" width="46.259459459459464"></rect><rect x="772.1513513513514" y="262.93914024678776" height="2.9823505538066684" width="46.259459459459464"></rect><rect x="820.4108108108109" y="270.19494560141857" height="3.082017371063216" width="46.259459459459464"></rect><rect x="868.6702702702703" y="270.3819750300295" height="1.8072793043300521" width="46.259459459459464"></rect><rect x="916.9297297297298" y="273.68117737212015" height="1.0746229269952892" width="46.259459459459464"></rect><rect x="965.1891891891893" y="278.60066246860555" height="1.1574890384808327" width="46.259459459459464"></rect><rect x="1013.4486486486487" y="282.6564991082153" height="1.0582693812169737" width="46.259459459459464"></rect><rect x="1061.7081081081083" y="281.4389619248402" height="0.6593056567558051" width="46.259459459459464"></rect><rect x="1109.9675675675676" y="282.07505451302046" height="0.6527768697723673" width="46.259459459459464"></rect><rect x="1158.2270270270271" y="282.0411010296146" height="1.0252758722016324" width="46.259459459459464"></rect><rect x="1206.4864864864867" y="283.5821715866487" height="0.4056054473640529" width="46.259459459459464"></rect><rect x="1254.745945945946" y="283.4858588432279" height="0.7092580406430784" width="46.259459459459464"></rect><rect x="1303.0054054054056" y="285.8027153932952" height="0.9637333816309024" width="46.259459459459464"></rect><rect x="1351.264864864865" y="285.3746587558694" height="0.8530267243999106" width="46.259459459459464"></rect><rect x="1399.5243243243244" y="286.113056455429" height="0.5232776813123792" width="46.259459459459464"></rect><rect x="1447.783783783784" y="286.4237647096267" height="0.3985050938903214" width="46.259459459459464"></rect><rect x="1496.0432432432433" y="286.7446111153144" height="0.6205574794364566" width="46.259459459459464"></rect><rect x="1544.3027027027028" y="287.4988898190951" height="0.6806764699848031" width="46.259459459459464"></rect><rect x="1592.5621621621624" y="288.68139627998397" height="0.6300857087243799" width="46.259459459459464"></rect><rect x="1640.8216216216217" y="291.2975324687032" height="0.1427510188651695" width="46.259459459459464"></rect><rect x="1689.0810810810813" y="293.4460651477512" height="0.00634057859542736" width="46.259459459459464"></rect><rect x="1737.3405405405406" y="293.7859716812871" height="0" width="46.259459459459464"></rect></g><g class="layer" style="fill: rgb(84, 101, 214);"><rect x="0" y="0" height="0" width="46.259459459459464"></rect><rect x="48.259459459459464" y="127.99428529829282" height="3.283032754756846" width="46.259459459459464"></rect><rect x="96.51891891891893" y="200.5873402977469" height="0" width="46.259459459459464"></rect><rect x="144.7783783783784" y="203.72820587485893" height="2.393802969086721" width="46.259459459459464"></rect><rect x="193.03783783783786" y="219.22385614967422" height="0" width="46.259459459459464"></rect><rect x="241.29729729729732" y="208.66690932915952" height="0" width="46.259459459459464"></rect><rect x="289.5567567567568" y="188.83718560040768" height="10.57691745276776" width="46.259459459459464"></rect><rect x="337.8162162162163" y="229.22432934153534" height="3.6268367572336047" width="46.259459459459464"></rect><rect x="386.0756756756757" y="225.74636916245038" height="6.050144276768322" width="46.259459459459464"></rect><rect x="434.33513513513515" y="231.21479270556546" height="3.731443652503856" width="46.259459459459464"></rect><rect x="482.59459459459464" y="250.79303315982963" height="0" width="46.259459459459464"></rect><rect x="530.8540540540541" y="247.03683616641794" height="3.1587780337065112" width="46.259459459459464"></rect><rect x="579.1135135135136" y="251.94878608087942" height="0.7346235776025765" width="46.259459459459464"></rect><rect x="627.372972972973" y="261.38208422815126" height="0" width="46.259459459459464"></rect><rect x="675.6324324324326" y="260.21562989116586" height="0.9244400528532424" width="46.259459459459464"></rect><rect x="723.891891891892" y="260.3708004222327" height="0.5476074837132501" width="46.259459459459464"></rect><rect x="772.1513513513514" y="262.93914024678776" height="0" width="46.259459459459464"></rect><rect x="820.4108108108109" y="269.5044589233065" height="0.6904866781120518" width="46.259459459459464"></rect><rect x="868.6702702702703" y="270.3819750300295" height="0" width="46.259459459459464"></rect><rect x="916.9297297297298" y="272.7897936155498" height="0.8913837565703489" width="46.259459459459464"></rect><rect x="965.1891891891893" y="278.60066246860555" height="0" width="46.259459459459464"></rect><rect x="1013.4486486486487" y="282.6564991082153" height="0" width="46.259459459459464"></rect><rect x="1061.7081081081083" y="280.3663960979871" height="1.072565826853122" width="46.259459459459464"></rect><rect x="1109.9675675675676" y="281.457940523423" height="0.617113989597442" width="46.259459459459464"></rect><rect x="1158.2270270270271" y="281.5810068066829" height="0.4600942229316729" width="46.259459459459464"></rect><rect x="1206.4864864864867" y="283.5821715866487" height="0" width="46.259459459459464"></rect><rect x="1254.745945945946" y="283.4858588432279" height="0" width="46.259459459459464"></rect><rect x="1303.0054054054056" y="285.8027153932952" height="0" width="46.259459459459464"></rect><rect x="1351.264864864865" y="285.3746587558694" height="0" width="46.259459459459464"></rect><rect x="1399.5243243243244" y="286.113056455429" height="0" width="46.259459459459464"></rect><rect x="1447.783783783784" y="285.74920831361703" height="0.6745563960096774" width="46.259459459459464"></rect><rect x="1496.0432432432433" y="286.535762384887" height="0.20884873042740537" width="46.259459459459464"></rect><rect x="1544.3027027027028" y="287.4988898190951" height="0" width="46.259459459459464"></rect><rect x="1592.5621621621624" y="288.68139627998397" height="0" width="46.259459459459464"></rect><rect x="1640.8216216216217" y="291.2015797328286" height="0.09595273587461861" width="46.259459459459464"></rect><rect x="1689.0810810810813" y="293.43282495541075" height="0.013240192340447265" width="46.259459459459464"></rect><rect x="1737.3405405405406" y="293.7859716812871" height="0" width="46.259459459459464"></rect></g><rect x="1" y="297" height="15" width="44.259459459459464" stroke="black" stroke-width="0" fill="transparent"></rect><rect x="49.259459459459464" y="297" height="15" width="44.259459459459464" stroke="black" stroke-width="2" fill="rgb(0, 0, 0)"></rect><rect x="97.51891891891893" y="297" height="15" width="44.259459459459464" stroke="black" stroke-width="2" fill="rgb(0, 0, 0)"></rect><rect x="145.7783783783784" y="297" height="15" width="44.259459459459464" stroke="black" stroke-width="2" fill="rgb(0, 0, 0)"></rect><rect x="194.03783783783786" y="297" height="15" width="44.259459459459464" stroke="black" stroke-width="0" fill="transparent"></rect><rect x="242.29729729729732" y="297" height="15" width="44.259459459459464" stroke="black" stroke-width="2" fill="rgb(0, 0, 0)"></rect><rect x="290.5567567567568" y="297" height="15" width="44.259459459459464" stroke="black" stroke-width="2" fill="rgb(0, 0, 0)"></rect><rect x="338.8162162162163" y="297" height="15" width="44.259459459459464" stroke="black" stroke-width="2" fill="rgb(0, 0, 0)"></rect><rect x="387.0756756756757" y="297" height="15" width="44.259459459459464" stroke="black" stroke-width="2" fill="rgb(0, 0, 0)"></rect><rect x="435.33513513513515" y="297" height="15" width="44.259459459459464" stroke="black" stroke-width="2" fill="rgb(0, 0, 0)"></rect><rect x="483.59459459459464" y="297" height="15" width="44.259459459459464" stroke="black" stroke-width="0" fill="transparent"></rect><rect x="531.8540540540541" y="297" height="15" width="44.259459459459464" stroke="black" stroke-width="2" fill="rgb(0, 0, 0)"></rect><rect x="580.1135135135136" y="297" height="15" width="44.259459459459464" stroke="black" stroke-width="2" fill="rgb(0, 0, 0)"></rect><rect x="628.372972972973" y="297" height="15" width="44.259459459459464" stroke="black" stroke-width="0" fill="transparent"></rect><rect x="676.6324324324326" y="297" height="15" width="44.259459459459464" stroke="black" stroke-width="2" fill="rgb(0, 0, 0)"></rect><rect x="724.891891891892" y="297" height="15" width="44.259459459459464" stroke="black" stroke-width="0" fill="transparent"></rect><rect x="773.1513513513514" y="297" height="15" width="44.259459459459464" stroke="black" stroke-width="0" fill="transparent"></rect><rect x="821.4108108108109" y="297" height="15" width="44.259459459459464" stroke="black" stroke-width="2" fill="rgb(0, 0, 0)"></rect><rect x="869.6702702702703" y="297" height="15" width="44.259459459459464" stroke="black" stroke-width="0" fill="transparent"></rect><rect x="917.9297297297298" y="297" height="15" width="44.259459459459464" stroke="black" stroke-width="0" fill="transparent"></rect><rect x="966.1891891891893" y="297" height="15" width="44.259459459459464" stroke="black" stroke-width="0" fill="transparent"></rect><rect x="1014.4486486486487" y="297" height="15" width="44.259459459459464" stroke="black" stroke-width="0" fill="transparent"></rect><rect x="1062.7081081081083" y="297" height="15" width="44.259459459459464" stroke="black" stroke-width="0" fill="transparent"></rect><rect x="1110.9675675675676" y="297" height="15" width="44.259459459459464" stroke="black" stroke-width="0" fill="transparent"></rect><rect x="1159.2270270270271" y="297" height="15" width="44.259459459459464" stroke="black" stroke-width="0" fill="transparent"></rect><rect x="1207.4864864864867" y="297" height="15" width="44.259459459459464" stroke="black" stroke-width="2" fill="rgb(0, 0, 0)"></rect><rect x="1255.745945945946" y="297" height="15" width="44.259459459459464" stroke="black" stroke-width="0" fill="transparent"></rect><rect x="1304.0054054054056" y="297" height="15" width="44.259459459459464" stroke="black" stroke-width="0" fill="transparent"></rect><rect x="1352.264864864865" y="297" height="15" width="44.259459459459464" stroke="black" stroke-width="2" fill="rgb(255, 255, 255)"></rect><rect x="1400.5243243243244" y="297" height="15" width="44.259459459459464" stroke="black" stroke-width="0" fill="transparent"></rect><rect x="1448.783783783784" y="297" height="15" width="44.259459459459464" stroke="black" stroke-width="0" fill="transparent"></rect><rect x="1497.0432432432433" y="297" height="15" width="44.259459459459464" stroke="black" stroke-width="0" fill="transparent"></rect><rect x="1545.3027027027028" y="297" height="15" width="44.259459459459464" stroke="black" stroke-width="0" fill="transparent"></rect><rect x="1593.5621621621624" y="297" height="15" width="44.259459459459464" stroke="black" stroke-width="0" fill="transparent"></rect><rect x="1641.8216216216217" y="297" height="15" width="44.259459459459464" stroke="black" stroke-width="0" fill="transparent"></rect><rect x="1690.0810810810813" y="297" height="15" width="44.259459459459464" stroke="black" stroke-width="0" fill="transparent"></rect><rect x="1738.3405405405406" y="297" height="15" width="44.259459459459464" stroke="black" stroke-width="0" fill="transparent"></rect><rect x="1" y="316" height="15" width="44.259459459459464" stroke="black" stroke-width="2" fill="rgb(255, 255, 255)"></rect><rect x="49.259459459459464" y="316" height="15" width="44.259459459459464" stroke="black" stroke-width="2" fill="rgb(0, 0, 0)"></rect><rect x="97.51891891891893" y="316" height="15" width="44.259459459459464" stroke="black" stroke-width="2" fill="rgb(0, 0, 0)"></rect><rect x="145.7783783783784" y="316" height="15" width="44.259459459459464" stroke="black" stroke-width="2" fill="rgb(0, 0, 0)"></rect><rect x="194.03783783783786" y="316" height="15" width="44.259459459459464" stroke="black" stroke-width="2" fill="rgb(0, 0, 0)"></rect><rect x="242.29729729729732" y="316" height="15" width="44.259459459459464" stroke="black" stroke-width="2" fill="rgb(0, 0, 0)"></rect><rect x="290.5567567567568" y="316" height="15" width="44.259459459459464" stroke="black" stroke-width="2" fill="rgb(255, 255, 255)"></rect><rect x="338.8162162162163" y="316" height="15" width="44.259459459459464" stroke="black" stroke-width="2" fill="rgb(0, 0, 0)"></rect><rect x="387.0756756756757" y="316" height="15" width="44.259459459459464" stroke="black" stroke-width="2" fill="rgb(255, 255, 255)"></rect><rect x="435.33513513513515" y="316" height="15" width="44.259459459459464" stroke="black" stroke-width="2" fill="rgb(0, 0, 0)"></rect><rect x="483.59459459459464" y="316" height="15" width="44.259459459459464" stroke="black" stroke-width="0" fill="transparent"></rect><rect x="531.8540540540541" y="316" height="15" width="44.259459459459464" stroke="black" stroke-width="2" fill="rgb(255, 255, 255)"></rect><rect x="580.1135135135136" y="316" height="15" width="44.259459459459464" stroke="black" stroke-width="2" fill="rgb(255, 255, 255)"></rect><rect x="628.372972972973" y="316" height="15" width="44.259459459459464" stroke="black" stroke-width="0" fill="transparent"></rect><rect x="676.6324324324326" y="316" height="15" width="44.259459459459464" stroke="black" stroke-width="2" fill="rgb(0, 0, 0)"></rect><rect x="724.891891891892" y="316" height="15" width="44.259459459459464" stroke="black" stroke-width="2" fill="rgb(0, 0, 0)"></rect><rect x="773.1513513513514" y="316" height="15" width="44.259459459459464" stroke="black" stroke-width="0" fill="transparent"></rect><rect x="821.4108108108109" y="316" height="15" width="44.259459459459464" stroke="black" stroke-width="2" fill="rgb(0, 0, 0)"></rect><rect x="869.6702702702703" y="316" height="15" width="44.259459459459464" stroke="black" stroke-width="0" fill="transparent"></rect><rect x="917.9297297297298" y="316" height="15" width="44.259459459459464" stroke="black" stroke-width="0" fill="transparent"></rect><rect x="966.1891891891893" y="316" height="15" width="44.259459459459464" stroke="black" stroke-width="0" fill="transparent"></rect><rect x="1014.4486486486487" y="316" height="15" width="44.259459459459464" stroke="black" stroke-width="0" fill="transparent"></rect><rect x="1062.7081081081083" y="316" height="15" width="44.259459459459464" stroke="black" stroke-width="0" fill="transparent"></rect><rect x="1110.9675675675676" y="316" height="15" width="44.259459459459464" stroke="black" stroke-width="0" fill="transparent"></rect><rect x="1159.2270270270271" y="316" height="15" width="44.259459459459464" stroke="black" stroke-width="0" fill="transparent"></rect><rect x="1207.4864864864867" y="316" height="15" width="44.259459459459464" stroke="black" stroke-width="2" fill="rgb(0, 0, 0)"></rect><rect x="1255.745945945946" y="316" height="15" width="44.259459459459464" stroke="black" stroke-width="0" fill="transparent"></rect><rect x="1304.0054054054056" y="316" height="15" width="44.259459459459464" stroke="black" stroke-width="0" fill="transparent"></rect><rect x="1352.264864864865" y="316" height="15" width="44.259459459459464" stroke="black" stroke-width="2" fill="rgb(255, 255, 255)"></rect><rect x="1400.5243243243244" y="316" height="15" width="44.259459459459464" stroke="black" stroke-width="0" fill="transparent"></rect><rect x="1448.783783783784" y="316" height="15" width="44.259459459459464" stroke="black" stroke-width="0" fill="transparent"></rect><rect x="1497.0432432432433" y="316" height="15" width="44.259459459459464" stroke="black" stroke-width="0" fill="transparent"></rect><rect x="1545.3027027027028" y="316" height="15" width="44.259459459459464" stroke="black" stroke-width="0" fill="transparent"></rect><rect x="1593.5621621621624" y="316" height="15" width="44.259459459459464" stroke="black" stroke-width="0" fill="transparent"></rect><rect x="1641.8216216216217" y="316" height="15" width="44.259459459459464" stroke="black" stroke-width="0" fill="transparent"></rect><rect x="1690.0810810810813" y="316" height="15" width="44.259459459459464" stroke="black" stroke-width="0" fill="transparent"></rect><rect x="1738.3405405405406" y="316" height="15" width="44.259459459459464" stroke="black" stroke-width="0" fill="transparent"></rect><g transform="translate(0,336)" fill="none" font-size="10" font-family="sans-serif" text-anchor="middle"><path class="domain" stroke="#000" d="M0.5,0V0.5H1786.1000000000001V0"></path><g class="tick" opacity="1" transform="translate(24.129729729729732,0)"><line stroke="#000" y2="6"></line><text fill="#000" y="6" dy=".15em" style="text-anchor: end;" dx="-.8em" transform="rotate(-65)">DO35083</text></g><g class="tick" opacity="1" transform="translate(72.3891891891892,0)"><line stroke="#000" y2="6"></line><text fill="#000" y="6" dy=".15em" style="text-anchor: end;" dx="-.8em" transform="rotate(-65)">DO51962</text></g><g class="tick" opacity="1" transform="translate(120.64864864864866,0)"><line stroke="#000" y2="6"></line><text fill="#000" y="6" dy=".15em" style="text-anchor: end;" dx="-.8em" transform="rotate(-65)">DO51954</text></g><g class="tick" opacity="1" transform="translate(168.90810810810814,0)"><line stroke="#000" y2="6"></line><text fill="#000" y="6" dy=".15em" style="text-anchor: end;" dx="-.8em" transform="rotate(-65)">DO51953</text></g><g class="tick" opacity="1" transform="translate(217.16756756756757,0)"><line stroke="#000" y2="6"></line><text fill="#000" y="6" dy=".15em" style="text-anchor: end;" dx="-.8em" transform="rotate(-65)">DO35082</text></g><g class="tick" opacity="1" transform="translate(265.42702702702707,0)"><line stroke="#000" y2="6"></line><text fill="#000" y="6" dy=".15em" style="text-anchor: end;" dx="-.8em" transform="rotate(-65)">DO218443</text></g><g class="tick" opacity="1" transform="translate(313.6864864864865,0)"><line stroke="#000" y2="6"></line><text fill="#000" y="6" dy=".15em" style="text-anchor: end;" dx="-.8em" transform="rotate(-65)">DO51965</text></g><g class="tick" opacity="1" transform="translate(361.945945945946,0)"><line stroke="#000" y2="6"></line><text fill="#000" y="6" dy=".15em" style="text-anchor: end;" dx="-.8em" transform="rotate(-65)">DO51964</text></g><g class="tick" opacity="1" transform="translate(410.20540540540543,0)"><line stroke="#000" y2="6"></line><text fill="#000" y="6" dy=".15em" style="text-anchor: end;" dx="-.8em" transform="rotate(-65)">DO51958</text></g><g class="tick" opacity="1" transform="translate(458.46486486486486,0)"><line stroke="#000" y2="6"></line><text fill="#000" y="6" dy=".15em" style="text-anchor: end;" dx="-.8em" transform="rotate(-65)">DO51955</text></g><g class="tick" opacity="1" transform="translate(506.72432432432436,0)"><line stroke="#000" y2="6"></line><text fill="#000" y="6" dy=".15em" style="text-anchor: end;" dx="-.8em" transform="rotate(-65)">DO218442</text></g><g class="tick" opacity="1" transform="translate(554.9837837837839,0)"><line stroke="#000" y2="6"></line><text fill="#000" y="6" dy=".15em" style="text-anchor: end;" dx="-.8em" transform="rotate(-65)">DO51956</text></g><g class="tick" opacity="1" transform="translate(603.2432432432433,0)"><line stroke="#000" y2="6"></line><text fill="#000" y="6" dy=".15em" style="text-anchor: end;" dx="-.8em" transform="rotate(-65)">DO51960</text></g><g class="tick" opacity="1" transform="translate(651.5027027027028,0)"><line stroke="#000" y2="6"></line><text fill="#000" y="6" dy=".15em" style="text-anchor: end;" dx="-.8em" transform="rotate(-65)">DO218428</text></g><g class="tick" opacity="1" transform="translate(699.7621621621623,0)"><line stroke="#000" y2="6"></line><text fill="#000" y="6" dy=".15em" style="text-anchor: end;" dx="-.8em" transform="rotate(-65)">DO51959</text></g><g class="tick" opacity="1" transform="translate(748.0216216216218,0)"><line stroke="#000" y2="6"></line><text fill="#000" y="6" dy=".15em" style="text-anchor: end;" dx="-.8em" transform="rotate(-65)">DO218419</text></g><g class="tick" opacity="1" transform="translate(796.2810810810812,0)"><line stroke="#000" y2="6"></line><text fill="#000" y="6" dy=".15em" style="text-anchor: end;" dx="-.8em" transform="rotate(-65)">DO218404</text></g><g class="tick" opacity="1" transform="translate(844.5405405405406,0)"><line stroke="#000" y2="6"></line><text fill="#000" y="6" dy=".15em" style="text-anchor: end;" dx="-.8em" transform="rotate(-65)">DO218462</text></g><g class="tick" opacity="1" transform="translate(892.8000000000001,0)"><line stroke="#000" y2="6"></line><text fill="#000" y="6" dy=".15em" style="text-anchor: end;" dx="-.8em" transform="rotate(-65)">DO218484</text></g><g class="tick" opacity="1" transform="translate(941.0594594594596,0)"><line stroke="#000" y2="6"></line><text fill="#000" y="6" dy=".15em" style="text-anchor: end;" dx="-.8em" transform="rotate(-65)">DO35085</text></g><g class="tick" opacity="1" transform="translate(989.318918918919,0)"><line stroke="#000" y2="6"></line><text fill="#000" y="6" dy=".15em" style="text-anchor: end;" dx="-.8em" transform="rotate(-65)">DO218489</text></g><g class="tick" opacity="1" transform="translate(1037.5783783783784,0)"><line stroke="#000" y2="6"></line><text fill="#000" y="6" dy=".15em" style="text-anchor: end;" dx="-.8em" transform="rotate(-65)">DO49528</text></g><g class="tick" opacity="1" transform="translate(1085.837837837838,0)"><line stroke="#000" y2="6"></line><text fill="#000" y="6" dy=".15em" style="text-anchor: end;" dx="-.8em" transform="rotate(-65)">DO51992</text></g><g class="tick" opacity="1" transform="translate(1134.0972972972972,0)"><line stroke="#000" y2="6"></line><text fill="#000" y="6" dy=".15em" style="text-anchor: end;" dx="-.8em" transform="rotate(-65)">DO51989</text></g><g class="tick" opacity="1" transform="translate(1182.3567567567568,0)"><line stroke="#000" y2="6"></line><text fill="#000" y="6" dy=".15em" style="text-anchor: end;" dx="-.8em" transform="rotate(-65)">DO218478</text></g><g class="tick" opacity="1" transform="translate(1230.6162162162163,0)"><line stroke="#000" y2="6"></line><text fill="#000" y="6" dy=".15em" style="text-anchor: end;" dx="-.8em" transform="rotate(-65)">DO218488</text></g><g class="tick" opacity="1" transform="translate(1278.8756756756757,0)"><line stroke="#000" y2="6"></line><text fill="#000" y="6" dy=".15em" style="text-anchor: end;" dx="-.8em" transform="rotate(-65)">DO218457</text></g><g class="tick" opacity="1" transform="translate(1327.1351351351352,0)"><line stroke="#000" y2="6"></line><text fill="#000" y="6" dy=".15em" style="text-anchor: end;" dx="-.8em" transform="rotate(-65)">DO49537</text></g><g class="tick" opacity="1" transform="translate(1375.3945945945948,0)"><line stroke="#000" y2="6"></line><text fill="#000" y="6" dy=".15em" style="text-anchor: end;" dx="-.8em" transform="rotate(-65)">DO51967</text></g><g class="tick" opacity="1" transform="translate(1423.654054054054,0)"><line stroke="#000" y2="6"></line><text fill="#000" y="6" dy=".15em" style="text-anchor: end;" dx="-.8em" transform="rotate(-65)">DO218408</text></g><g class="tick" opacity="1" transform="translate(1471.9135135135136,0)"><line stroke="#000" y2="6"></line><text fill="#000" y="6" dy=".15em" style="text-anchor: end;" dx="-.8em" transform="rotate(-65)">DO49529</text></g><g class="tick" opacity="1" transform="translate(1520.172972972973,0)"><line stroke="#000" y2="6"></line><text fill="#000" y="6" dy=".15em" style="text-anchor: end;" dx="-.8em" transform="rotate(-65)">DO49532</text></g><g class="tick" opacity="1" transform="translate(1568.4324324324325,0)"><line stroke="#000" y2="6"></line><text fill="#000" y="6" dy=".15em" style="text-anchor: end;" dx="-.8em" transform="rotate(-65)">DO49536</text></g><g class="tick" opacity="1" transform="translate(1616.691891891892,0)"><line stroke="#000" y2="6"></line><text fill="#000" y="6" dy=".15em" style="text-anchor: end;" dx="-.8em" transform="rotate(-65)">DO49533</text></g><g class="tick" opacity="1" transform="translate(1664.9513513513514,0)"><line stroke="#000" y2="6"></line><text fill="#000" y="6" dy=".15em" style="text-anchor: end;" dx="-.8em" transform="rotate(-65)">DO49531</text></g><g class="tick" opacity="1" transform="translate(1713.210810810811,0)"><line stroke="#000" y2="6"></line><text fill="#000" y="6" dy=".15em" style="text-anchor: end;" dx="-.8em" transform="rotate(-65)">DO218517</text></g><g class="tick" opacity="1" transform="translate(1761.4702702702702,0)"><line stroke="#000" y2="6"></line><text fill="#000" y="6" dy=".15em" style="text-anchor: end;" dx="-.8em" transform="rotate(-65)">DO218487</text></g><rect class="x-drag-target" width="1785.6000000000001" height="60" fill="transparent" opacity="0" style="cursor: pointer;"></rect></g></g><text transform="translate(892.8000000000001 ,420)" style="text-anchor: middle;">Donors</text><g fill="none" font-size="10" font-family="sans-serif" text-anchor="end"><rect width="90" height="436" transform="translate(-90,0)" fill="#FFF"></rect><path class="domain" stroke="#000" d="M-6,294.5H0.5V0.5H-6"></path><g class="tick" opacity="1" transform="translate(0,294.5)"><line stroke="#000" x2="-6"></line><text fill="#000" x="-9" dy="0.32em">0</text></g><g class="tick" opacity="1" transform="translate(0,267.74646016088525)"><line stroke="#000" x2="-6"></line><text fill="#000" x="-9" dy="0.32em">5,000</text></g><g class="tick" opacity="1" transform="translate(0,240.99292032177047)"><line stroke="#000" x2="-6"></line><text fill="#000" x="-9" dy="0.32em">10,000</text></g><g class="tick" opacity="1" transform="translate(0,214.2393804826557)"><line stroke="#000" x2="-6"></line><text fill="#000" x="-9" dy="0.32em">15,000</text></g><g class="tick" opacity="1" transform="translate(0,187.48584064354094)"><line stroke="#000" x2="-6"></line><text fill="#000" x="-9" dy="0.32em">20,000</text></g><g class="tick" opacity="1" transform="translate(0,160.73230080442616)"><line stroke="#000" x2="-6"></line><text fill="#000" x="-9" dy="0.32em">25,000</text></g><g class="tick" opacity="1" transform="translate(0,133.9787609653114)"><line stroke="#000" x2="-6"></line><text fill="#000" x="-9" dy="0.32em">30,000</text></g><g class="tick" opacity="1" transform="translate(0,107.22522112619666)"><line stroke="#000" x2="-6"></line><text fill="#000" x="-9" dy="0.32em">35,000</text></g><g class="tick" opacity="1" transform="translate(0,80.47168128708185)"><line stroke="#000" x2="-6"></line><text fill="#000" x="-9" dy="0.32em">40,000</text></g><g class="tick" opacity="1" transform="translate(0,53.7181414479671)"><line stroke="#000" x2="-6"></line><text fill="#000" x="-9" dy="0.32em">45,000</text></g><g class="tick" opacity="1" transform="translate(0,26.96460160885232)"><line stroke="#000" x2="-6"></line><text fill="#000" x="-9" dy="0.32em">50,000</text></g></g><text transform="rotate(-90)" y="-80" x="-165" dy="1em" style="text-anchor: middle;">Signature Exposures</text><g fill="none" font-size="10" font-family="sans-serif" text-anchor="end" transform="translate(0,297)"><path class="domain" stroke="#000" d="M0,15.5H0.5V0.5H0"></path><g class="tick" opacity="1" transform="translate(0,7.5)"><line stroke="#000" x2="-6"></line><text fill="#000" x="-9" dy=".1em" style="text-anchor: end;" dx="-.4em" transform="rotate(-25)">Alcohol</text></g></g><g fill="none" font-size="10" font-family="sans-serif" text-anchor="end" transform="translate(0,315)"><path class="domain" stroke="#000" d="M0,15.5H0.5V0.5H0"></path><g class="tick" opacity="1" transform="translate(0,7.5)"><line stroke="#000" x2="-6"></line><text fill="#000" x="-9" dy=".1em" style="text-anchor: end;" dx="-.4em" transform="rotate(-25)">Tobacco</text></g></g></g></svg>