<?xml version="1.0"?>
<!DOCTYPE svg PUBLIC "-//W3C//DTD SVG 1.1//EN"
  "http://www.w3.org/Graphics/SVG/1.1/DTD/svg11.dtd">

<svg width="1495.2" height="400" xmlns="http://www.w3.org/2000/svg" xmlns:xlink="http://www.w3.org/1999/xlink"><g transform="translate(90,20)"><g class="brush" fill="none" pointer-events="all"><rect class="overlay" pointer-events="all" cursor="crosshair" x="0" y="0" width="1495.199951171875" height="400"></rect><rect class="selection" cursor="move" fill="#777" fill-opacity="0.3" stroke="#fff" shape-rendering="crispEdges" style="display: none;"></rect><rect class="handle handle--e" cursor="ew-resize" style="display: none;"></rect><rect class="handle handle--w" cursor="ew-resize" style="display: none;"></rect></g><g><rect x="-90" y="303.2432432432432" width="1475.2" height="10.91891891891892" transform="translate(0,-2)" fill-opacity="0" fill="silver"></rect></g><g><rect x="363" y="0" width="20" height="400" transform="translate(-120,-20)" fill-opacity="0" fill="silver"></rect></g><g class="sample-bar-g" transform="translate(0,0)"><rect class="sample-bar" x="0" y="0" width="1375.2" height="6.918918918918919" fill="#fbb4ae"></rect></g><g class="sample-bar-g" transform="translate(0,8.91891891891892)"><rect class="sample-bar" x="0" y="0" width="1375.2" height="6.918918918918919" fill="#fbb4ae"></rect></g><g class="sample-bar-g" transform="translate(0,17.83783783783784)"><rect class="sample-bar" x="0" y="0" width="1375.2" height="6.918918918918919" fill="#fbb4ae"></rect></g><g class="sample-bar-g" transform="translate(0,26.756756756756758)"><rect class="sample-bar" x="0" y="0" width="1375.2" height="6.918918918918919" fill="#fbb4ae"></rect></g><g class="sample-bar-g" transform="translate(0,35.67567567567568)"><rect class="sample-bar" x="0" y="0" width="1375.2" height="6.918918918918919" fill="#fbb4ae"></rect></g><g class="sample-bar-g" transform="translate(0,44.5945945945946)"><rect class="sample-bar" x="0" y="0" width="1375.2" height="6.918918918918919" fill="#fbb4ae"></rect></g><g class="sample-bar-g" transform="translate(0,53.513513513513516)"><rect class="sample-bar" x="0" y="0" width="1375.2" height="6.918918918918919" fill="#fbb4ae"></rect></g><g class="sample-bar-g" transform="translate(0,62.432432432432435)"><rect class="sample-bar" x="0" y="0" width="1375.2" height="6.918918918918919" fill="#fbb4ae"></rect></g><g class="sample-bar-g" transform="translate(0,71.35135135135135)"><rect class="sample-bar" x="0" y="0" width="1375.2" height="6.918918918918919" fill="#b3cde3"></rect><rect class="kataegis-region" x="504.1691395084313" y="0" width="3" height="6.918918918918919" fill-opacity="0.5" fill="black"></rect><rect class="kataegis-region" x="504.1692299823487" y="0" width="3" height="6.918918918918919" fill-opacity="0.5" fill="black"></rect><rect class="kataegis-region" x="504.17004990222574" y="0" width="3" height="6.918918918918919" fill-opacity="0.5" fill="black"></rect><rect class="kataegis-region" x="504.17019126772175" y="0" width="3" height="6.918918918918919" fill-opacity="0.5" fill="black"></rect><rect class="kataegis-region" x="504.1715766495829" y="0" width="3" height="6.918918918918919" fill-opacity="0.5" fill="black"></rect><rect class="kataegis-region" x="504.1716162319218" y="0" width="3" height="6.918918918918919" fill-opacity="0.5" fill="black"></rect></g><g class="sample-bar-g" transform="translate(0,80.27027027027027)"><rect class="sample-bar" x="0" y="0" width="1375.2" height="6.918918918918919" fill="#b3cde3"></rect></g><g class="sample-bar-g" transform="translate(0,89.1891891891892)"><rect class="sample-bar" x="0" y="0" width="1375.2" height="6.918918918918919" fill="#b3cde3"></rect></g><g class="sample-bar-g" transform="translate(0,98.10810810810811)"><rect class="sample-bar" x="0" y="0" width="1375.2" height="6.918918918918919" fill="#ccebc5"></rect></g><g class="sample-bar-g" transform="translate(0,107.02702702702703)"><rect class="sample-bar" x="0" y="0" width="1375.2" height="6.918918918918919" fill="#ccebc5"></rect></g><g class="sample-bar-g" transform="translate(0,115.94594594594595)"><rect class="sample-bar" x="0" y="0" width="1375.2" height="6.918918918918919" fill="#ccebc5"></rect></g><g class="sample-bar-g" transform="translate(0,124.86486486486487)"><rect class="sample-bar" x="0" y="0" width="1375.2" height="6.918918918918919" fill="#ccebc5"></rect></g><g class="sample-bar-g" transform="translate(0,133.7837837837838)"><rect class="sample-bar" x="0" y="0" width="1375.2" height="6.918918918918919" fill="#ccebc5"></rect></g><g class="sample-bar-g" transform="translate(0,142.7027027027027)"><rect class="sample-bar" x="0" y="0" width="1375.2" height="6.918918918918919" fill="#decbe4"></rect></g><g class="sample-bar-g" transform="translate(0,151.6216216216216)"><rect class="sample-bar" x="0" y="0" width="1375.2" height="6.918918918918919" fill="#decbe4"></rect></g><g class="sample-bar-g" transform="translate(0,160.54054054054055)"><rect class="sample-bar" x="0" y="0" width="1375.2" height="6.918918918918919" fill="#decbe4"></rect></g><g class="sample-bar-g" transform="translate(0,169.45945945945948)"><rect class="sample-bar" x="0" y="0" width="1375.2" height="6.918918918918919" fill="#decbe4"></rect></g><g class="sample-bar-g" transform="translate(0,178.3783783783784)"><rect class="sample-bar" x="0" y="0" width="1375.2" height="6.918918918918919" fill="#decbe4"></rect></g><g class="sample-bar-g" transform="translate(0,187.2972972972973)"><rect class="sample-bar" x="0" y="0" width="1375.2" height="6.918918918918919" fill="#decbe4"></rect></g><g class="sample-bar-g" transform="translate(0,196.21621621621622)"><rect class="sample-bar" x="0" y="0" width="1375.2" height="6.918918918918919" fill="#decbe4"></rect></g><g class="sample-bar-g" transform="translate(0,205.13513513513516)"><rect class="sample-bar" x="0" y="0" width="1375.2" height="6.918918918918919" fill="#fed9a6"></rect><rect class="kataegis-region" x="993.7239140365712" y="0" width="3" height="6.918918918918919" fill-opacity="0.5" fill="black"></rect><rect class="kataegis-region" x="993.7252145991347" y="0" width="3" height="6.918918918918919" fill-opacity="0.5" fill="black"></rect><rect class="kataegis-region" x="993.725486020887" y="0" width="3" height="6.918918918918919" fill-opacity="0.5" fill="black"></rect><rect class="kataegis-region" x="993.7260571374911" y="0" width="3" height="6.918918918918919" fill-opacity="0.5" fill="black"></rect><rect class="kataegis-region" x="993.7291728330237" y="0" width="3" height="6.918918918918919" fill-opacity="0.5" fill="black"></rect><rect class="kataegis-region" x="993.7330858299541" y="0" width="3" height="6.918918918918919" fill-opacity="0.5" fill="black"></rect><rect class="kataegis-region" x="993.7360997423294" y="0" width="3" height="6.918918918918919" fill-opacity="0.5" fill="black"></rect><rect class="kataegis-region" x="993.7371515016201" y="0" width="3" height="6.918918918918919" fill-opacity="0.5" fill="black"></rect></g><g class="sample-bar-g" transform="translate(0,214.05405405405406)"><rect class="sample-bar" x="0" y="0" width="1375.2" height="6.918918918918919" fill="#ffffcc"></rect><rect class="kataegis-region" x="417.6789469601141" y="0" width="3" height="6.918918918918919" fill-opacity="0.5" fill="black"></rect></g><g class="sample-bar-g" transform="translate(0,222.97297297297297)"><rect class="sample-bar" x="0" y="0" width="1375.2" height="6.918918918918919" fill="#ffffcc"></rect><rect class="kataegis-region" x="827.609243949819" y="0" width="3" height="6.918918918918919" fill-opacity="0.5" fill="black"></rect></g><g class="sample-bar-g" transform="translate(0,231.8918918918919)"><rect class="sample-bar" x="0" y="0" width="1375.2" height="6.918918918918919" fill="#ffffcc"></rect></g><g class="sample-bar-g" transform="translate(0,240.81081081081084)"><rect class="sample-bar" x="0" y="0" width="1375.2" height="6.918918918918919" fill="#e5d8bd"></rect><rect class="kataegis-region" x="922.7623706414737" y="0" width="3" height="6.918918918918919" fill-opacity="0.5" fill="black"></rect><rect class="kataegis-region" x="1023.4437024934272" y="0" width="3" height="6.918918918918919" fill-opacity="0.5" fill="black"></rect><rect class="kataegis-region" x="1024.1032064601582" y="0" width="3" height="6.918918918918919" fill-opacity="0.5" fill="black"></rect><rect class="kataegis-region" x="1024.1075435535765" y="0" width="3" height="6.918918918918919" fill-opacity="0.5" fill="black"></rect><rect class="kataegis-region" x="1024.1098562930918" y="0" width="3" height="6.918918918918919" fill-opacity="0.5" fill="black"></rect><rect class="kataegis-region" x="1024.1117618999783" y="0" width="3" height="6.918918918918919" fill-opacity="0.5" fill="black"></rect><rect class="kataegis-region" x="1024.1163308328103" y="0" width="3" height="6.918918918918919" fill-opacity="0.5" fill="black"></rect><rect class="kataegis-region" x="1024.1181403111596" y="0" width="3" height="6.918918918918919" fill-opacity="0.5" fill="black"></rect><rect class="kataegis-region" x="1024.1196614038968" y="0" width="3" height="6.918918918918919" fill-opacity="0.5" fill="black"></rect><rect class="kataegis-region" x="1024.1204869783937" y="0" width="3" height="6.918918918918919" fill-opacity="0.5" fill="black"></rect><rect class="kataegis-region" x="1024.1233482160335" y="0" width="3" height="6.918918918918919" fill-opacity="0.5" fill="black"></rect><rect class="kataegis-region" x="1082.7259169915706" y="0" width="3" height="6.918918918918919" fill-opacity="0.5" fill="black"></rect><rect class="kataegis-region" x="1082.7259622285294" y="0" width="3" height="6.918918918918919" fill-opacity="0.5" fill="black"></rect><rect class="kataegis-region" x="1082.726324124199" y="0" width="3" height="6.918918918918919" fill-opacity="0.5" fill="black"></rect><rect class="kataegis-region" x="1082.7264428712158" y="0" width="3" height="6.918918918918919" fill-opacity="0.5" fill="black"></rect><rect class="kataegis-region" x="1082.7265333451332" y="0" width="3" height="6.918918918918919" fill-opacity="0.5" fill="black"></rect><rect class="kataegis-region" x="1082.7295811852277" y="0" width="3" height="6.918918918918919" fill-opacity="0.5" fill="black"></rect><rect class="kataegis-region" x="1082.7296660045254" y="0" width="3" height="6.918918918918919" fill-opacity="0.5" fill="black"></rect><rect class="kataegis-region" x="1082.7302145026501" y="0" width="3" height="6.918918918918919" fill-opacity="0.5" fill="black"></rect></g><g class="sample-bar-g" transform="translate(0,249.72972972972974)"><rect class="sample-bar" x="0" y="0" width="1375.2" height="6.918918918918919" fill="#e5d8bd"></rect><rect class="kataegis-region" x="1183.1946125190052" y="0" width="3" height="6.918918918918919" fill-opacity="0.5" fill="black"></rect><rect class="kataegis-region" x="1183.1957208244942" y="0" width="3" height="6.918918918918919" fill-opacity="0.5" fill="black"></rect><rect class="kataegis-region" x="1183.1958961177093" y="0" width="3" height="6.918918918918919" fill-opacity="0.5" fill="black"></rect><rect class="kataegis-region" x="1183.1962975957179" y="0" width="3" height="6.918918918918919" fill-opacity="0.5" fill="black"></rect><rect class="kataegis-region" x="1183.1964106881148" y="0" width="3" height="6.918918918918919" fill-opacity="0.5" fill="black"></rect></g><g class="sample-bar-g" transform="translate(0,258.64864864864865)"><rect class="sample-bar" x="0" y="0" width="1375.2" height="6.918918918918919" fill="#e5d8bd"></rect><rect class="kataegis-region" x="748.5147060736871" y="0" width="3" height="6.918918918918919" fill-opacity="0.5" fill="black"></rect><rect class="kataegis-region" x="748.5147626198855" y="0" width="3" height="6.918918918918919" fill-opacity="0.5" fill="black"></rect><rect class="kataegis-region" x="748.515248917192" y="0" width="3" height="6.918918918918919" fill-opacity="0.5" fill="black"></rect><rect class="kataegis-region" x="748.5154524835061" y="0" width="3" height="6.918918918918919" fill-opacity="0.5" fill="black"></rect><rect class="kataegis-region" x="748.515961399292" y="0" width="3" height="6.918918918918919" fill-opacity="0.5" fill="black"></rect><rect class="kataegis-region" x="748.5172336887563" y="0" width="3" height="6.918918918918919" fill-opacity="0.5" fill="black"></rect><rect class="kataegis-region" x="748.5176125482857" y="0" width="3" height="6.918918918918919" fill-opacity="0.5" fill="black"></rect><rect class="kataegis-region" x="748.5296399246886" y="0" width="3" height="6.918918918918919" fill-opacity="0.5" fill="black"></rect><rect class="kataegis-region" x="752.0024247003302" y="0" width="3" height="6.918918918918919" fill-opacity="0.5" fill="black"></rect><rect class="kataegis-region" x="752.0119018431844" y="0" width="3" height="6.918918918918919" fill-opacity="0.5" fill="black"></rect><rect class="kataegis-region" x="780.6257936791638" y="0" width="3" height="6.918918918918919" fill-opacity="0.5" fill="black"></rect><rect class="kataegis-region" x="780.6896343371741" y="0" width="3" height="6.918918918918919" fill-opacity="0.5" fill="black"></rect><rect class="kataegis-region" x="780.6991001707887" y="0" width="3" height="6.918918918918919" fill-opacity="0.5" fill="black"></rect><rect class="kataegis-region" x="780.7020179546269" y="0" width="3" height="6.918918918918919" fill-opacity="0.5" fill="black"></rect><rect class="kataegis-region" x="780.7064229034834" y="0" width="3" height="6.918918918918919" fill-opacity="0.5" fill="black"></rect><rect class="kataegis-region" x="783.1127916139817" y="0" width="3" height="6.918918918918919" fill-opacity="0.5" fill="black"></rect><rect class="kataegis-region" x="783.1128538148" y="0" width="3" height="6.918918918918919" fill-opacity="0.5" fill="black"></rect><rect class="kataegis-region" x="783.1136680800572" y="0" width="3" height="6.918918918918919" fill-opacity="0.5" fill="black"></rect></g><g class="sample-bar-g" transform="translate(0,267.5675675675676)"><rect class="sample-bar" x="0" y="0" width="1375.2" height="6.918918918918919" fill="#e5d8bd"></rect></g><g class="sample-bar-g" transform="translate(0,276.4864864864865)"><rect class="sample-bar" x="0" y="0" width="1375.2" height="6.918918918918919" fill="#e5d8bd"></rect><rect class="kataegis-region" x="934.8840774124857" y="0" width="3" height="6.918918918918919" fill-opacity="0.5" fill="black"></rect></g><g class="sample-bar-g" transform="translate(0,285.4054054054054)"><rect class="sample-bar" x="0" y="0" width="1375.2" height="6.918918918918919" fill="#e5d8bd"></rect></g><g class="sample-bar-g" transform="translate(0,294.3243243243243)"><rect class="sample-bar" x="0" y="0" width="1375.2" height="6.918918918918919" fill="#e5d8bd"></rect><rect class="kataegis-region" x="1318.3752210841433" y="0" width="3" height="6.918918918918919" fill-opacity="0.5" fill="black"></rect><rect class="kataegis-region" x="1094.6907250258414" y="0" width="3" height="6.918918918918919" fill-opacity="0.5" fill="black"></rect><rect class="kataegis-region" x="1094.7003944257704" y="0" width="3" height="6.918918918918919" fill-opacity="0.5" fill="black"></rect><rect class="kataegis-region" x="1130.4209898600357" y="0" width="3" height="6.918918918918919" fill-opacity="0.5" fill="black"></rect><rect class="kataegis-region" x="1130.4281599179947" y="0" width="3" height="6.918918918918919" fill-opacity="0.5" fill="black"></rect><rect class="kataegis-region" x="1318.369374207227" y="0" width="3" height="6.918918918918919" fill-opacity="0.5" fill="black"></rect><rect class="kataegis-region" x="1318.3820857926307" y="0" width="3" height="6.918918918918919" fill-opacity="0.5" fill="black"></rect><rect class="kataegis-region" x="1318.3821366842094" y="0" width="3" height="6.918918918918919" fill-opacity="0.5" fill="black"></rect><rect class="kataegis-region" x="1318.3857612955278" y="0" width="3" height="6.918918918918919" fill-opacity="0.5" fill="black"></rect><rect class="kataegis-region" x="1318.3884359307128" y="0" width="3" height="6.918918918918919" fill-opacity="0.5" fill="black"></rect></g><g class="sample-bar-g" transform="translate(0,303.2432432432432)"><rect class="sample-bar" x="0" y="0" width="1375.2" height="6.918918918918919" fill="#e5d8bd"></rect></g><g class="sample-bar-g" transform="translate(0,312.1621621621622)"><rect class="sample-bar" x="0" y="0" width="1375.2" height="6.918918918918919" fill="#e5d8bd"></rect></g><g class="sample-bar-g" transform="translate(0,321.0810810810811)"><rect class="sample-bar" x="0" y="0" width="1375.2" height="6.918918918918919" fill="#e5d8bd"></rect></g><g transform="translate(0,330)" fill="none" font-size="10" font-family="sans-serif" text-anchor="middle"><path class="domain" stroke="#000" d="M0.5,6V0.5H1375.7V6"></path><g class="tick" opacity="1" transform="translate(0.5,0)"><line stroke="#000" y2="6"></line><text fill="#000" y="9" dy="0.71em">0</text></g><g class="tick" opacity="1" transform="translate(113.59239682949348,0)"><line stroke="#000" y2="6"></line><text fill="#000" y="9" dy="0.71em">20,000,000</text></g><g class="tick" opacity="1" transform="translate(226.68479365898696,0)"><line stroke="#000" y2="6"></line><text fill="#000" y="9" dy="0.71em">40,000,000</text></g><g class="tick" opacity="1" transform="translate(339.7771904884804,0)"><line stroke="#000" y2="6"></line><text fill="#000" y="9" dy="0.71em">60,000,000</text></g><g class="tick" opacity="1" transform="translate(452.8695873179739,0)"><line stroke="#000" y2="6"></line><text fill="#000" y="9" dy="0.71em">80,000,000</text></g><g class="tick" opacity="1" transform="translate(565.9619841474673,0)"><line stroke="#000" y2="6"></line><text fill="#000" y="9" dy="0.71em">100,000,000</text></g><g class="tick" opacity="1" transform="translate(679.0543809769608,0)"><line stroke="#000" y2="6"></line><text fill="#000" y="9" dy="0.71em">120,000,000</text></g><g class="tick" opacity="1" transform="translate(792.1467778064543,0)"><line stroke="#000" y2="6"></line><text fill="#000" y="9" dy="0.71em">140,000,000</text></g><g class="tick" opacity="1" transform="translate(905.2391746359478,0)"><line stroke="#000" y2="6"></line><text fill="#000" y="9" dy="0.71em">160,000,000</text></g><g class="tick" opacity="1" transform="translate(1018.3315714654412,0)"><line stroke="#000" y2="6"></line><text fill="#000" y="9" dy="0.71em">180,000,000</text></g><g class="tick" opacity="1" transform="translate(1131.4239682949346,0)"><line stroke="#000" y2="6"></line><text fill="#000" y="9" dy="0.71em">200,000,000</text></g><g class="tick" opacity="1" transform="translate(1244.5163651244284,0)"><line stroke="#000" y2="6"></line><text fill="#000" y="9" dy="0.71em">220,000,000</text></g><g class="tick" opacity="1" transform="translate(1357.6087619539217,0)"><line stroke="#000" y2="6"></line><text fill="#000" y="9" dy="0.71em">240,000,000</text></g></g><text transform="translate(687.6 ,370)" style="text-anchor: middle;">Chromosome Location</text><g fill="none" font-size="10" font-family="sans-serif" text-anchor="end"><path class="domain" stroke="#000" d="M0,0.5H0.5V330.5H0"></path><g class="tick" opacity="1" transform="translate(0,4.45945945945946)"><line stroke="#000" x2="-6"></line><text fill="#000" x="-9" dy="0.32em">DO218488</text></g><g class="tick" opacity="1" transform="translate(0,13.378378378378379)"><line stroke="#000" x2="-6"></line><text fill="#000" x="-9" dy="0.32em">DO218489</text></g><g class="tick" opacity="1" transform="translate(0,22.2972972972973)"><line stroke="#000" x2="-6"></line><text fill="#000" x="-9" dy="0.32em">DO218428</text></g><g class="tick" opacity="1" transform="translate(0,31.216216216216218)"><line stroke="#000" x2="-6"></line><text fill="#000" x="-9" dy="0.32em">DO218457</text></g><g class="tick" opacity="1" transform="translate(0,40.13513513513514)"><line stroke="#000" x2="-6"></line><text fill="#000" x="-9" dy="0.32em">DO218478</text></g><g class="tick" opacity="1" transform="translate(0,49.054054054054056)"><line stroke="#000" x2="-6"></line><text fill="#000" x="-9" dy="0.32em">DO218404</text></g><g class="tick" opacity="1" transform="translate(0,57.972972972972975)"><line stroke="#000" x2="-6"></line><text fill="#000" x="-9" dy="0.32em">DO218408</text></g><g class="tick" opacity="1" transform="translate(0,66.8918918918919)"><line stroke="#000" x2="-6"></line><text fill="#000" x="-9" dy="0.32em">DO218419</text></g><g class="tick" opacity="1" transform="translate(0,75.8108108108108)"><line stroke="#000" x2="-6"></line><text fill="#000" x="-9" dy="0.32em">DO51967</text></g><g class="tick" opacity="1" transform="translate(0,84.72972972972974)"><line stroke="#000" x2="-6"></line><text fill="#000" x="-9" dy="0.32em">DO51989</text></g><g class="tick" opacity="1" transform="translate(0,93.64864864864865)"><line stroke="#000" x2="-6"></line><text fill="#000" x="-9" dy="0.32em">DO51992</text></g><g class="tick" opacity="1" transform="translate(0,102.56756756756758)"><line stroke="#000" x2="-6"></line><text fill="#000" x="-9" dy="0.32em">DO218484</text></g><g class="tick" opacity="1" transform="translate(0,111.48648648648648)"><line stroke="#000" x2="-6"></line><text fill="#000" x="-9" dy="0.32em">DO218487</text></g><g class="tick" opacity="1" transform="translate(0,120.40540540540542)"><line stroke="#000" x2="-6"></line><text fill="#000" x="-9" dy="0.32em">DO218442</text></g><g class="tick" opacity="1" transform="translate(0,129.32432432432432)"><line stroke="#000" x2="-6"></line><text fill="#000" x="-9" dy="0.32em">DO218443</text></g><g class="tick" opacity="1" transform="translate(0,138.24324324324326)"><line stroke="#000" x2="-6"></line><text fill="#000" x="-9" dy="0.32em">DO218517</text></g><g class="tick" opacity="1" transform="translate(0,147.16216216216216)"><line stroke="#000" x2="-6"></line><text fill="#000" x="-9" dy="0.32em">DO49528</text></g><g class="tick" opacity="1" transform="translate(0,156.08108108108107)"><line stroke="#000" x2="-6"></line><text fill="#000" x="-9" dy="0.32em">DO49529</text></g><g class="tick" opacity="1" transform="translate(0,165)"><line stroke="#000" x2="-6"></line><text fill="#000" x="-9" dy="0.32em">DO49531</text></g><g class="tick" opacity="1" transform="translate(0,173.91891891891893)"><line stroke="#000" x2="-6"></line><text fill="#000" x="-9" dy="0.32em">DO49532</text></g><g class="tick" opacity="1" transform="translate(0,182.83783783783784)"><line stroke="#000" x2="-6"></line><text fill="#000" x="-9" dy="0.32em">DO49533</text></g><g class="tick" opacity="1" transform="translate(0,191.75675675675674)"><line stroke="#000" x2="-6"></line><text fill="#000" x="-9" dy="0.32em">DO49536</text></g><g class="tick" opacity="1" transform="translate(0,200.67567567567568)"><line stroke="#000" x2="-6"></line><text fill="#000" x="-9" dy="0.32em">DO49537</text></g><g class="tick" opacity="1" transform="translate(0,209.5945945945946)"><line stroke="#000" x2="-6"></line><text fill="#000" x="-9" dy="0.32em">DO218462</text></g><g class="tick" opacity="1" transform="translate(0,218.51351351351352)"><line stroke="#000" x2="-6"></line><text fill="#000" x="-9" dy="0.32em">DO35083</text></g><g class="tick" opacity="1" transform="translate(0,227.43243243243242)"><line stroke="#000" x2="-6"></line><text fill="#000" x="-9" dy="0.32em">DO35082</text></g><g class="tick" opacity="1" transform="translate(0,236.35135135135135)"><line stroke="#000" x2="-6"></line><text fill="#000" x="-9" dy="0.32em">DO35085</text></g><g class="tick" opacity="1" transform="translate(0,245.2702702702703)"><line stroke="#000" x2="-6"></line><text fill="#000" x="-9" dy="0.32em">DO51960</text></g><g class="tick" opacity="1" transform="translate(0,254.1891891891892)"><line stroke="#000" x2="-6"></line><text fill="#000" x="-9" dy="0.32em">DO51962</text></g><g class="tick" opacity="1" transform="translate(0,263.1081081081081)"><line stroke="#000" x2="-6"></line><text fill="#000" x="-9" dy="0.32em">DO51964</text></g><g class="tick" opacity="1" transform="translate(0,272.0270270270271)"><line stroke="#000" x2="-6"></line><text fill="#000" x="-9" dy="0.32em">DO51965</text></g><g class="tick" opacity="1" transform="translate(0,280.945945945946)"><line stroke="#000" x2="-6"></line><text fill="#000" x="-9" dy="0.32em">DO51953</text></g><g class="tick" opacity="1" transform="translate(0,289.8648648648649)"><line stroke="#000" x2="-6"></line><text fill="#000" x="-9" dy="0.32em">DO51954</text></g><g class="tick" opacity="1" transform="translate(0,298.7837837837838)"><line stroke="#000" x2="-6"></line><text fill="#000" x="-9" dy="0.32em">DO51955</text></g><g class="tick" opacity="1" transform="translate(0,307.7027027027027)"><line stroke="#000" x2="-6"></line><text fill="#000" x="-9" dy="0.32em">DO51956</text></g><g class="tick" opacity="1" transform="translate(0,316.62162162162167)"><line stroke="#000" x2="-6"></line><text fill="#000" x="-9" dy="0.32em">DO51958</text></g><g class="tick" opacity="1" transform="translate(0,325.5405405405406)"><line stroke="#000" x2="-6"></line><text fill="#000" x="-9" dy="0.32em">DO51959</text></g></g><text transform="rotate(-90)" y="-85" x="-165" dy="1em" style="text-anchor: middle;">Donor</text></g></svg>